<?xml version="1.0" encoding="utf-8"?>
<!-- Generator: Adobe Illustrator 26.2.0, SVG Export Plug-In . SVG Version: 6.00 Build 0)  -->
<svg version="1.1" id="Layer_1" xmlns="http://www.w3.org/2000/svg" xmlns:xlink="http://www.w3.org/1999/xlink" x="0px" y="0px"
	 viewBox="0 0 600 600" style="enable-background:new 0 0 600 600;" xml:space="preserve">
<style type="text/css">
	.st0{fill:#BE2B39;}
</style>
<g>
	<path class="st0" d="M346.5,209.2c29.6-16.4,49.8-48,49.8-84.2c0-53.1-43.2-96.2-96.2-96.2s-96.2,43.2-96.2,96.2
		c0,36.2,20.1,67.8,49.8,84.2C164.9,230.3,98.7,310,98.7,405v166.2h402.5V405C501.2,310,435.1,230.3,346.5,209.2L346.5,209.2z
		 M221.2,125c0-43.4,35.3-78.8,78.8-78.8s78.8,35.3,78.8,78.8s-35.3,78.7-78.8,78.7S221.2,168.4,221.2,125z M483.8,553.8h-35V326.3
		h-17.5v227.5H168.8V326.3h-17.5v227.5h-35V405c0-101.3,82.4-183.8,183.8-183.8S483.8,303.7,483.8,405V553.8z"/>
	<path class="st0" d="M335,329.6c-15.4,6.5-26.2,21.8-26.2,39.6c0,7.8,2.1,15.5,6.1,22.1l12.4,20.6c7.1,11.9,20.2,19.3,34,19.3
		s26.9-7.4,34-19.2l12.4-20.6c4-6.7,6.1-14.3,6.1-22.1c0-17.8-10.8-33.1-26.2-39.6v-38.4h-18.2c-4.3-29.6-29.8-52.5-60.6-52.5
		c-33.8,0-61.2,27.5-61.2,61.2v51.8l-31.9-25.5h-29.3v17.5h23.2l38.1,30.5v39.5h-12.8l-17.5-26.2h-30.9V405h21.6l17.5,26.2h22.2
		v22.2L186.2,506v30.3h17.5V514l52-44.6l22.1,22.1l-30.4,22.8v21.9H265v-13.1l28.1-21.1l92.1,25.1l28.5,0.3V510h-25.1l-29.4-8
		l31.5-27h23v-17.5h-29.5l-45.4,38.9l-43.1-11.7L265,453.9V405h17.5v-17.5H265V300c0-24.1,19.6-43.8,43.8-43.8
		c21.1,0,38.8,15.1,42.9,35H335V329.6z M370,326.2h-17.5v-17.5H370V326.2z M396.2,369.3c0,4.6-1.3,9.2-3.6,13.1L380.3,403
		c-4,6.6-11.3,10.8-19,10.8s-15-4.1-19-10.8l-12.4-20.6c-2.4-4-3.6-8.5-3.6-13.1c0-14.1,11.4-25.5,25.5-25.5h19
		C384.8,343.7,396.3,355.2,396.2,369.3L396.2,369.3z"/>
	<path class="st0" d="M360.3,361.8l-11.7-7.8l-9.7,14.6l11.7,7.8c6.7,4.4,10.7,11.9,10.7,19.9h17.5
		C378.8,382.4,371.9,369.5,360.3,361.8L360.3,361.8z"/>
</g>
</svg>
