<?xml version="1.0" encoding="utf-8"?>
<!-- Generator: Adobe Illustrator 26.2.0, SVG Export Plug-In . SVG Version: 6.00 Build 0)  -->
<svg version="1.1" id="Layer_1" xmlns="http://www.w3.org/2000/svg" xmlns:xlink="http://www.w3.org/1999/xlink" x="0px" y="0px"
	 viewBox="0 0 600 600" style="enable-background:new 0 0 600 600;" xml:space="preserve">
<style type="text/css">
	.st0{fill:#BE2B39;}
</style>
<g>
	<path class="st0" d="M434.2,325.4c15.4,1.6,30.7-3.8,41.6-14.7c7.8-9.2,11.8-21.1,11.2-33.2c-0.6-12.1-5.8-23.5-14.6-31.8
		c-8.7-8.4-20.3-13.1-32.4-13.2c-1.3,0-3.3,0-20.6,2.4c-7.9-12.6-12.6-26.9-13.8-41.6c4.6-3.7,8.3-8.5,10.6-14
		c19,5.3,36.5,14.6,51.6,27.3c5.1,4,12.4,3.2,16.4-1.9c4-5.1,3.2-12.4-1.9-16.5c-17.7-14.8-38.4-25.6-60.7-31.6
		c2.3-4.6,7.4-7.2,12.5-6.3c15.4,1.6,30.7-3.8,41.6-14.7c7.8-9.2,11.8-21.1,11.2-33.2c-0.6-12.1-5.8-23.5-14.6-31.8
		c-8.7-8.4-20.3-13.1-32.4-13.2c-1.3,0-3.4,0-20.8,2.4c-6.7-10.6-11.2-22.6-13.1-35c-1-6.4-7-10.9-13.4-9.9c-6.4,1-10.9,7-9.9,13.4
		c2,12,6,23.6,11.7,34.3c-45.3,5.6-48.6,5.1-58.3,9.9c-7.7,4.7-15.9,8.6-24.4,11.7V27.1c0-6.4-5.2-11.7-11.7-11.7
		c-6.4,0-11.7,5.2-11.7,11.7v57.6c-8.5-3-16.7-6.9-24.4-11.7c-9.6-4.8-12.5-4.2-58.3-9.9c5.7-10.7,9.7-22.3,11.7-34.3
		c1-6.4-3.5-12.5-9.9-13.4c-6.4-1-12.5,3.5-13.4,9.9c-1.9,12.4-6.3,24.4-13.1,35c-18.4-2.3-19.5-2.4-20.8-2.4v0
		c-12.1,0.1-23.7,4.8-32.4,13.2c-8.7,8.4-13.9,19.7-14.6,31.8s3.4,23.9,11.2,33.2c10.9,10.9,26.3,16.3,41.6,14.7
		c5.1-0.7,10,1.8,12.5,6.3c-22.2,6-42.9,16.8-60.6,31.6c-2.4,1.9-4,4.8-4.3,7.8c-0.4,3.1,0.5,6.2,2.5,8.6c4,5.1,11.4,5.9,16.4,1.9
		c14.8-12.7,32.1-22.1,50.8-27.6c2.6,5.7,6.6,10.5,11.7,14.1c-1.1,14.8-5.9,29-13.8,41.5c-18.4-2.3-19.4-2.4-20.6-2.4h0
		c-12.1,0.1-23.7,4.8-32.4,13.2c-8.7,8.4-13.9,19.7-14.6,31.8c-0.6,12.1,3.4,23.9,11.2,33.2c10.9,10.9,26.3,16.3,41.7,14.7
		c5.1-0.7,10,1.8,12.5,6.3c-22.2,6-42.9,16.8-60.5,31.6c-2.4,1.9-4,4.8-4.3,7.8c-0.3,3.1,0.5,6.2,2.5,8.6c4,5.1,11.4,5.9,16.4,1.9
		c14.7-12.6,31.9-21.9,50.4-27.3c2.6,5.7,6.6,10.5,11.7,14.1c-1.1,14.8-5.9,29-13.8,41.5c-18.4-2.3-19.4-2.4-20.6-2.4h0
		c-12.1,0.1-23.7,4.8-32.4,13.2c-8.7,8.4-13.9,19.7-14.6,31.8c-0.6,12.1,3.4,23.9,11.2,33.2c10.9,11,26.3,16.4,41.7,14.7
		c5.1-0.7,10,1.8,12.5,6.3c-22.2,6-42.9,16.8-60.5,31.6c-2.4,1.9-4,4.8-4.3,7.8c-0.3,3.1,0.5,6.2,2.5,8.6c4,5.1,11.4,5.9,16.4,1.9
		c14.7-12.6,31.9-21.9,50.4-27.3c4.7,11,14.6,18.8,26.4,20.8c54.7,9.2,46.7,6.2,64.2,17.5c7.7,5.1,16.7,7.8,25.9,7.8
		s18.2-2.7,25.9-7.8c6.1-5.1,13.3-8.6,21-10.3c38.9-6.4,59.5-5.1,69.4-28h0c19,5.3,36.5,14.6,51.6,27.3c5.1,4,12.4,3.2,16.5-1.9
		c4-5.1,3.2-12.4-1.9-16.5c-17.7-14.8-38.4-25.6-60.7-31.6c2.3-4.6,7.4-7.2,12.5-6.3c15.4,1.6,30.7-3.8,41.6-14.7
		c7.8-9.2,11.8-21.1,11.2-33.1c-0.6-12.1-5.8-23.4-14.5-31.8c-8.7-8.4-20.3-13.1-32.4-13.2c-1.3,0-3.3,0-20.6,2.4
		c-7.9-12.6-12.6-26.9-13.8-41.6c4.6-3.7,8.3-8.5,10.6-14c19,5.3,36.5,14.6,51.6,27.3c5.1,4,12.4,3.2,16.4-1.9
		c4-5.1,3.2-12.4-1.9-16.5c-17.7-14.8-38.4-25.6-60.7-31.6C424,327.1,429.1,324.5,434.2,325.4L434.2,325.4z M440.7,255.4
		c31.1,0.8,30.1,50.6-3.6,46.7l0,0c-9.2-1.4-18.6,1-26,6.6c-7.5,5.6-12.4,13.9-13.7,23.1l-1.2,8.6c-0.2,5.7-4.3,10.5-9.9,11.7
		c-53.6,9-51.4,6.5-73.3,21c-1.3,1.4-1.3,9.2-1.3-89.2c12.4-3.2,24.2-8.3,35-15c4.9-2.3,0-1.2,94-12.8L440.7,255.4z M351.2,243.1
		c-14.7,1.9-25.6,11.7-39.6,16.2v-35.3c7.9-2.4,15.2-6.4,21.5-11.7c8.3-5.5,11.7-5,49.6-11.7c1.8,12.8,5.8,25.2,11.7,36.8
		L351.2,243.1z M326.1,104.3c32-16.1,7-9.9,114.6-23.3c31.3,0.8,30,50.8-3.6,46.7v0c-9.2-1.4-18.6,1-26,6.6s-12.4,13.9-13.7,23.1
		c-3.1,22.4,1.1,18.2-54.4,27.4c-10.9,2.1-21.2,6.9-30,13.8c-1.3,1.1-1.3,10.1-1.3-89.6C316.7,107.9,321.5,106.4,326.1,104.3
		L326.1,104.3z M167.7,127.6c-9.1,1.6-18.4-1.1-25.4-7.1c-4-4.6-6.1-10.5-6-16.6c0.2-6.1,2.6-11.9,6.9-16.2c4.3-4.3,10-6.9,16.1-7.2
		c93.3,11.7,89.1,10.5,94.1,13.1c10.8,6.7,22.6,11.9,34.9,15.3c0,98.6,0.6,90.4-1.3,89.1c-21.2-14.1-16.8-11.7-73.3-21h0
		c-5-0.8-8.9-4.8-9.7-9.8l-1.4-10.4h0c-1.3-8.3-5.5-16-11.9-21.4c-6.4-5.5-14.6-8.4-23.1-8.3L167.7,127.6z M217.3,202
		c37.2,6.2,41.3,5.8,49.6,11.7l0,0c6.3,5.3,13.6,9.2,21.5,11.7v35.8c-1.3,0-2.7-0.8-4-1.4c-33.6-16.8-20.2-12.9-78.4-20.2h0
		c5.9-12,9.8-24.9,11.3-38.2L217.3,202z M167.7,302.6c-9.1,1.6-18.4-1.1-25.4-7.1c-4-4.6-6.1-10.5-6-16.6c0.2-6.1,2.6-11.9,6.9-16.2
		c4.3-4.3,10-6.9,16.1-7.2c93.3,11.7,89.1,10.5,94.1,13.1c10.8,6.7,22.6,11.9,34.9,15.3c0,98.6,0.6,90.4-1.3,89.1
		c-21.2-14.1-16.8-11.7-73.3-21h0c-5-0.8-8.9-4.8-9.7-9.8l-1.4-10.4h0c-1.3-8.3-5.5-16-11.9-21.4c-6.4-5.5-14.6-8.4-23.1-8.3
		L167.7,302.6z M217.3,377c37.2,6.2,41.3,5.8,49.6,11.7l0,0c6.3,5.3,13.6,9.2,21.5,11.7v35.8c-1.3,0-2.7-0.8-4-1.4
		c-33.6-16.8-20.2-12.9-78.4-20.2h0c5.9-12,9.8-24.9,11.3-38.2L217.3,377z M279.8,544c-28.7-19.7-73.1-7.1-75.7-26.8l-1.4-10.4h0
		c-1.3-9.2-6.3-17.5-13.7-23.1c-7.5-5.6-16.8-7.9-26-6.6c-33.6,4.2-35-45.6-3.6-46.7l86.7,10.7c10.4,1.4,25.2,14,42.4,17.4
		c0,98.2,0.6,90.4-1.3,89.1L279.8,544z M440.7,431.5c31.1,0.8,30.1,50.6-3.6,46.7v0c-9.2-1.4-18.6,1-26,6.6
		c-7.5,5.6-12.4,13.9-13.7,23.1l-1.2,8.6c-0.2,5.7-4.3,10.5-9.9,11.7c-53.6,9-51.4,6.5-73.3,21c-1.3,0.4-1.3,7.8-1.3-90.3
		c5-1,9.9-2.6,14.5-4.8c32.2-15.9,7-9.7,114.6-23.1L440.7,431.5z M351.2,419.1c-14.7,1.9-25.6,11.7-39.6,16.2l0-36.4
		c7.9-2.4,15.2-6.4,21.5-11.7c8.3-5.5,11.7-5,49.6-11.7c1.8,12.8,5.8,25.2,11.7,36.8L351.2,419.1z"/>
</g>
</svg>
