<?xml version="1.0" encoding="utf-8"?>
<!-- Generator: Adobe Illustrator 26.2.0, SVG Export Plug-In . SVG Version: 6.00 Build 0)  -->
<svg version="1.1" id="Layer_1" xmlns="http://www.w3.org/2000/svg" xmlns:xlink="http://www.w3.org/1999/xlink" x="0px" y="0px"
	 viewBox="0 0 600 600" style="enable-background:new 0 0 600 600;" xml:space="preserve">
<style type="text/css">
	.st0{fill:#BE2B39;}
</style>
<g>
	<path class="st0" d="M209.3,346c-19.4-0.2-37.9-8.1-51.5-21.9c-27.6-27.6-29.2-70.8-3.8-96.2c14.2-15.9,33.4-26.5,54.3-30.1
		c1.5-19.7,11-37.9,26.2-50.5c11.8-11.3,27.4-17.6,43.7-17.5c19.4,0.2,37.9,8.1,51.5,21.9c27.6,27.6,29.2,70.8,3.8,96.2
		c-27.3,27.3-49.1,16.9-62.1,10.7c-7.7-3.7-9.3-3.9-10.2-3c-1,1-1.1,5.2,2.1,14.6c4.9,14.3,12.3,35.7-9.8,57.9
		C241.8,339.7,225.9,346.1,209.3,346L209.3,346z M207.2,215.3c-15.6,3.9-29.6,12.3-40.3,24.2c-9.1,10-13.9,23.2-13.2,36.7
		c0.6,13.5,6.5,26.2,16.5,35.3c10.3,10.6,24.4,16.6,39.2,16.8c12.1,0.1,23.7-4.6,32.3-13c14.6-14.2,10.2-26.5,5.9-39.6
		c-3.5-10.1-7.9-22.8,2.1-32.6c10-9.9,21.7-4.6,30.2-0.4c12.2,5.9,23.6,11.3,42.2-7.3c18.6-18.6,17-50.8-3.8-71.6l0,0
		c-10.3-10.5-24.4-16.6-39.2-16.8c-12.1-0.1-23.7,4.5-32.3,13c-0.5,0.5-1,0.9-1.6,1.2c-0.9,0.6-24.4,16.6-19.5,66l-17.5,1.8
		C207.5,224,207.2,219.6,207.2,215.3L207.2,215.3z"/>
	<path class="st0" d="M166.4,236.5h-17.5c0-39.2-8-46.9-19.9-58.6l-3.9-3.6L49.9,98.9l12.3-12.3l78.8,78.7
		C154.7,178.5,166.4,190,166.4,236.5L166.4,236.5z"/>
	<path class="st0" d="M22.6,71.5L35,59.1l13.7,13.7L36.3,85.2L22.6,71.5z"/>
	<path class="st0" d="M242.9,159.9c-46.6,0-57.9-11.7-71.1-25.3l-3.4-3.5L66,29l12.3-12.4l106,106c11.6,12,19.4,19.9,58.5,19.9
		L242.9,159.9z"/>
	<path class="st0" d="M322.2,459.5c-19.4-0.2-37.9-8.1-51.5-21.9c-27.6-27.6-29.2-70.8-3.8-96.2c27.3-27.3,49.1-16.9,62.1-10.7
		c7.7,3.7,9.3,3.9,10.2,3c1-1,1.1-5.2-2.1-14.6c-4.9-14.3-12.3-35.7,9.8-57.9c11.9-11.8,28-18.3,44.7-18.1
		c19.4,0.2,37.9,8.1,51.5,21.9c27.6,27.6,29.2,70.8,3.8,96.2c-14.2,15.9-33.3,26.6-54.3,30.3c-1.6,19.7-11,37.9-26.2,50.5
		C354.6,453.4,338.7,459.7,322.2,459.5L322.2,459.5z M303.5,340.9c-9.5,0.8-18.2,5.4-24.2,12.8c-18.6,19.1-17,50.8,3.8,71.6
		c10.3,10.6,24.4,16.6,39.2,16.8c12.1,0.1,23.7-4.6,32.3-13c0.5-0.5,1-0.9,1.6-1.2c0.9-0.6,24.4-16.6,19.5-66l17.5-1.8
		c0.4,4.7,0.7,9.3,0.7,13.6h0c15.6-3.9,29.6-12.3,40.3-24.2c9.2-10,14-23.2,13.5-36.7c-0.5-13.5-6.4-26.3-16.4-35.5
		c-10.4-10.5-24.4-16.5-39.2-16.7c-12.1-0.1-23.7,4.6-32.3,13c-14.4,14.4-10.1,26.8-5.6,39.8c3.5,10.1,7.9,22.8-2.1,32.6
		c-10,9.9-21.7,4.6-30.2,0.4l0,0C316.3,343.2,310,341.3,303.5,340.9L303.5,340.9z"/>
	<path class="st0" d="M565,528.8l-105-105c-13.6-13.2-25.3-24.6-25.3-71.1h17.5c0,39.2,8,46.9,19.9,58.6l3.7,3.6l101.6,101.5
		L565,528.8z"/>
	<path class="st0" d="M521.6,571.5l-105-105c-11.6-12-19.4-19.9-58.5-19.9V429c46.6,0,57.9,11.7,71.1,25.3l3.4,3.5L534,559
		L521.6,571.5z"/>
	<path class="st0" d="M565,423.3l-63.4-63.4c-16.4-16.4-18.6-35-21.2-56.1c-3.8-31.5-8.8-70.7-64.1-126.3
		c-55.3-55.6-94.6-60.2-126-64c-21.2-2.5-39.6-4.7-56-21.3L171.1,29l12.3-12.4L246.8,80C259,92.1,273,93.9,292.5,96.2
		c32.3,3.9,76.6,9.2,136.3,69s65.1,104.2,68.9,136.5c2.4,19.5,4,33.6,16.2,45.8l63.4,63.4L565,423.3z"/>
	<path class="st0" d="M416.5,571.5L353.2,508c-12.2-12.2-26.2-13.9-45.7-16.2c-32.3-3.9-76.6-9.2-136.3-69
		c-59.8-59.8-65.2-104.2-69.1-136.6c-2.4-19.5-4-33.6-16.2-45.8L22.5,177l12.3-12.3l63.4,63.4c16.4,16.4,18.6,35,21.2,56.1
		c3.8,31.5,8.8,70.7,64.1,126.3s94.6,60.3,126.1,64.1c21.2,2.5,39.6,4.7,56,21.3l63.4,63.4L416.5,571.5z"/>
</g>
</svg>
