<?xml version="1.0" encoding="UTF-8"?><svg id="a" xmlns="http://www.w3.org/2000/svg" viewBox="0 0 600 600"><defs><style>.b{fill:none;stroke:#be2b39;stroke-miterlimit:10;stroke-width:10px;}</style></defs><path class="b" d="M464.58,95.33l-91.64,31.65c-.89,.25-3.3,1.78-6.73-.38-7.88-4.96-55.04-21.1-82.11,8.64l-54.91,60.5c-4.07,5.46-10.3,5.97-12.84,6.73-18.94,5.85-77.79,25.04-101.68,86.94-31.14,80.2,92.91,301.35,193.83,290.17,100.79-11.18,170.44-230.3,151.25-291.82-19.19-61.52-99.01-24.79-83.25-70.29,13.6-39.27,78.29-43.34,103.84-51.35,5.59-1.78,14.87-4.96,16.4-11.06,4.32-16.78-6.36-63.81-32.16-59.74h0ZM171.74,36.23s-7.62,102.19-27.58,100.92c-39.02,28.6-48.43,84.9-37.75,111.85,.76,1.78,2.29,2.92,4.07,3.05,1.91,.13,3.69-.64,4.57-2.29,11.31-18.56,45.5-52.62,79.56-61.77,6.23-1.65,9.02-4.07,7.62-10.42-5.34-23.64,5.08-73.08,33.93-100.79,2.16-2.04,3.05-4.96,2.54-7.88l-7.25-37.75c-.76-15.38-59.23-15.89-59.74,5.08h.01Zm49.44,137.52c-1.91-28.34,2.29-72.57,40.8-96.98l-.64-32.16c7.75-11.69,34.7-11.69,37.5-5.34l4.32,22.63c6.1-.89,12.07-1.02,17.92-.51l4.57-22.62c10.42-9.66,31.77,.64,31.65,7.25l-1.4,26.31c12.84,6.99,24.79,16.78,35.46,28.34,.64,.64,.76,1.4,.64,2.29-.25,.76-.76,1.4-1.52,1.65l-15.63,5.46c-2.92,1.02-5.72,.89-8.52-.25-32.03-13.22-71.81-11.82-96.34,14.87-15,16.14-30.25,33.17-44.48,50.46-.64,.76-1.65,1.14-2.67,.76-.89-.25-1.52-1.14-1.65-2.16h0Zm230.43,22.75c8.9,12.84,20.47,41.94,21.6,70.54,.13,1.14-.64,2.04-1.65,2.41-1.02,.38-2.16-.13-2.8-1.02-19.19-30.38-48.8-40.42-72.45-40.29-7.37,0-4.83-7.12-3.94-8.52,8.01-13.47,24.53-19.32,44.74-27.45,5.34-2.16,11.18-.38,14.49,4.32h0Zm33.05-40.93c-4.7,2.04-12.33-5.08-17.03-22.12-3.81-13.98-2.16-26.69,2.29-28.47,9.28-3.94,26.56,45.63,14.74,50.59h0Z"/></svg>