<?xml version="1.0" encoding="UTF-8"?><svg id="a" xmlns="http://www.w3.org/2000/svg" viewBox="0 0 600 600"><defs><style>.b{fill:none;stroke:#be2b39;stroke-miterlimit:10;stroke-width:10px;}</style></defs><path class="b" d="M509.87,40H174.39c-30.09,0-54.49,24.41-54.49,54.53s22.58,52.33,51.02,54.14c-49.19,39.3-80.79,99.73-80.79,167.59,0,84.12,48.27,156.84,118.75,191.98l-11.07,35.76H484.13s25.74-26.51,25.74-99.84-51.48-131.1-51.48-181.04c0-49.9,51.48-177.86,51.48-223.11h0Zm-229.41,430.74c-84.04,0-152.18-68.13-152.18-152.18s68.13-152.18,152.18-152.18,152.18,68.14,152.18,152.18c0,84.05-68.12,152.18-152.18,152.18Zm34.18-216.14c-14.61,0-27.32,7.93-34.18,19.69-6.86-11.75-19.58-19.69-34.18-19.69-21.84,0-39.57,17.73-39.57,39.57,0,42.23,66.18,86.62,73.76,100.69,7.57-14.07,73.76-58.45,73.76-100.69,.01-21.85-17.71-39.57-39.58-39.57h0Z"/></svg>