<?xml version="1.0" encoding="UTF-8"?><svg id="a" xmlns="http://www.w3.org/2000/svg" viewBox="0 0 600 600"><defs><style>.b{fill:none;stroke:#be2b39;stroke-miterlimit:10;stroke-width:10px;}</style></defs><path class="b" d="M258.7,435.13c-7.58-4.08-4.9-2.45-98.7-14.35h0c-9.21,.14-18.02,3.82-24.6,10.27-6.58,6.45-10.43,15.18-10.76,24.38-.33,9.2,2.89,18.19,8.99,25.09,8.41,7.5,19.59,11.09,30.8,9.92,6.16-.97,12.46,.57,17.48,4.28,5.02,3.7,8.35,9.27,9.24,15.44l1.4,10.38c4.79,31.96,53.2,15.87,80.73,34.07h0c4.6,3.58,9.66,6.52,15.05,8.75v-114.68c-10.38-3.32-20.32-7.87-29.63-13.54h0Z"/><path class="b" d="M435.57,490.43c11.21,1.18,22.39-2.42,30.8-9.92,6.1-6.9,9.32-15.88,8.99-25.09-.33-9.21-4.18-17.94-10.76-24.38-6.58-6.45-15.39-10.12-24.6-10.26-110.02,14-83.65,6.88-119.12,24.5-2.92,1.5-6.02,2.64-9.21,3.38v114.8h0c5.37-2.27,10.42-5.21,15.05-8.75,12.25-8.05,22.4-7.93,61.48-14.35,17.27-3.04,19.13-18.55,20.65-30.1h0c.86-6.19,4.18-11.78,9.2-15.51,5.02-3.73,11.34-5.29,17.52-4.32h0Z"/><path class="b" d="M168.05,513.42c-2.5,.44-5.04,.67-7.59,.7-15.39,6.52-29.76,15.2-42.7,25.78-3.95,3.07-5.51,8.31-3.87,13.03,1.64,4.73,6.11,7.88,11.1,7.85,7.58,0,19.6-15.63,47.25-26.37-2.28-6.8-3.69-13.85-4.2-21h0Z"/><path class="b" d="M440,514.12c-8.87,0-6.3-3.04-8.75,7.93-.57,4.21-1.71,8.34-3.38,12.25,14.57,5.67,28.18,13.54,40.37,23.33,5.06,4,12.4,3.13,16.39-1.93,4-5.06,3.13-12.4-1.93-16.39-12.97-10.38-27.35-18.86-42.7-25.2h0Z"/><path class="b" d="M260.45,399.08c-5.95-3.96-6.88-3.27-52.38-10.85-7.23-1.17-1.75-4.55-9.21,13.88,69.3,8.63,54.83,4.43,89.48,21.7v-11.67h0c-10.12-2.29-19.64-6.75-27.88-13.06h0Z"/><path class="b" d="M401.15,402c-1.98-4.86-3.62-9.85-4.9-14.93-3.04,1.05-1.52,.58-47.48,8.29-5.48,.7-7.93,2.8-16.45,8.4-23.33,15.4-20.65-.82-20.65,19.95,35-17.03,19.6-12.83,89.48-21.7h0Z"/><path class="b" d="M258.7,260.13c-7.58-4.08-4.9-2.45-98.7-14.35h0c-9.21,.14-18.02,3.82-24.6,10.27-6.58,6.45-10.43,15.18-10.76,24.38-.33,9.2,2.89,18.19,8.99,25.09,8.41,7.5,19.59,11.09,30.8,9.92,6.16-.97,12.46,.57,17.48,4.28,5.02,3.7,8.35,9.27,9.24,15.44l1.4,10.38c4.79,31.96,53.2,15.87,80.73,34.07h0c4.6,3.58,9.66,6.52,15.05,8.75v-114.68c-10.38-3.32-20.32-7.87-29.63-13.54h0Z"/><path class="b" d="M326.71,379.6c12.25-8.05,22.4-7.93,61.48-14.35,17.27-3.04,19.13-18.55,20.65-30.1h0c.89-6.17,4.22-11.73,9.24-15.44,5.02-3.71,11.31-5.25,17.48-4.28,11.21,1.18,22.39-2.42,30.8-9.92,6.1-6.9,9.32-15.88,8.99-25.09-.33-9.21-4.18-17.94-10.76-24.38-6.58-6.45-15.39-10.12-24.6-10.26-90.07,11.67-90.65,10.04-98.7,14.35h0c-9.3,5.67-19.25,10.22-29.63,13.53v114.8h0c5.37-2.3,10.43-5.29,15.05-8.87h0Z"/><path class="b" d="M125,385.79c7.58,0,19.6-15.63,47.25-26.37-2.28-6.8-3.69-13.85-4.2-21-2.5,.44-5.04,.67-7.59,.7-15.39,6.52-29.76,15.2-42.7,25.78-3.95,3.07-5.51,8.31-3.87,13.04,1.64,4.73,6.11,7.88,11.1,7.85h0Z"/><path class="b" d="M440,339.12c-8.87,0-6.3-3.04-8.75,7.93-.57,4.21-1.71,8.34-3.38,12.25,14.6,5.85,28.22,13.92,40.37,23.91,5.06,4,12.4,3.14,16.39-1.92,4-5.06,3.13-12.4-1.93-16.39-12.93-10.58-27.31-19.26-42.7-25.78h0Z"/><path class="b" d="M260.45,224.08c-5.95-3.96-6.88-3.27-52.38-10.85-7.82-1.29-1.52-3.96-9.33,13.88,70,8.75,55.07,4.55,89.6,21.7v-11.67h0c-10.12-2.29-19.64-6.75-27.88-13.06h0Z"/><path class="b" d="M401.15,227c-1.98-4.82-3.62-9.77-4.9-14.82-3.62,.93,.7,0-47.48,8.17-5.48,.7-7.93,2.8-16.45,8.4-23.33,15.4-20.65-.82-20.65,19.95,35-17.03,19.6-12.83,89.48-21.7h0Z"/><path class="b" d="M258.7,85.13c-7.58-4.08-5.37-2.45-98.7-14.35-9.21,.14-18.02,3.81-24.6,10.26-6.58,6.45-10.43,15.18-10.76,24.38-.33,9.2,2.89,18.19,8.99,25.09,8.41,7.5,19.59,11.09,30.8,9.92,6.16-.97,12.46,.57,17.48,4.28,5.02,3.7,8.35,9.27,9.24,15.44l1.4,10.38c4.79,31.96,53.2,15.87,80.73,34.07h0c4.6,3.58,9.66,6.52,15.05,8.75V98.67c-10.38-3.32-20.32-7.87-29.63-13.53h0Z"/><path class="b" d="M326.71,204.6c12.25-8.05,22.4-7.93,61.48-14.35,17.27-3.04,19.13-18.55,20.65-30.1h0c.89-6.17,4.22-11.73,9.24-15.44,5.02-3.71,11.31-5.25,17.48-4.28,11.21,1.18,22.39-2.42,30.8-9.92,6.1-6.9,9.32-15.88,8.99-25.09-.33-9.21-4.18-17.94-10.76-24.38-6.58-6.45-15.39-10.12-24.6-10.26-90.07,11.67-90.65,10.03-98.7,14.35h0c-9.3,5.67-19.25,10.22-29.63,13.53v114.8h0c5.37-2.3,10.43-5.29,15.05-8.87h0Z"/><path class="b" d="M125,210.79c7.58,0,19.6-15.63,47.25-26.37-2.28-6.8-3.69-13.85-4.2-21-2.5,.44-5.04,.67-7.59,.7-15.39,6.52-29.76,15.2-42.7,25.78-3.95,3.07-5.51,8.31-3.87,13.04,1.64,4.73,6.11,7.88,11.1,7.85h0Z"/><path class="b" d="M432.65,163.65c-1.03,7.05-2.79,13.97-5.25,20.65,30.1,11.67,38.15,26.48,47.6,26.48,5,.03,9.47-3.12,11.1-7.85,1.64-4.72,.08-9.97-3.87-13.04-12.79-10.54-27.01-19.22-42.23-25.78-2.46-.02-4.91-.18-7.35-.47h0Z"/><path class="b" d="M198.85,52c69.3,8.63,54.83,4.43,89.48,21.7V28.67h-82.95c-1.2,8.02-3.39,15.85-6.53,23.33h0Z"/><path class="b" d="M401.15,52c-3.14-7.48-5.33-15.31-6.53-23.33h-82.95v45.15c35-17.15,19.6-12.95,89.48-21.82h0Z"/></svg>